<svg xmlns="http://www.w3.org/2000/svg" viewBox="0 0 17 17"><path fill="#ff9148" d="M6.938 3.484l-.625.5.344 1.031a4.017 4.017 0 0 0-.845.594l-.844-.625-.688.406-.218.781.875.657c-.135.296-.218.61-.28.939H3.563l-.313.75.313.75h1.094c.062.328.144.642.28.937l-.874.656.281.72.625.468.844-.625c.251.238.537.427.844.594l-.344 1.03.656.407.75.062.344-1.062c.164.021.33.063.5.063s.335-.042.5-.063l.344 1.062.75-.062.656-.406-.344-1.031c.307-.167.592-.356.844-.594l.844.625.625-.469.28-.719-.874-.656c.137-.295.22-.61.281-.937h1.094l.188-.75-.188-.75H12.47a3.764 3.764 0 0 0-.27-.924l.875-.657-.219-.78-.687-.407-.844.625a3.794 3.794 0 0 0-.84-.594l.344-1.031-.625-.5-.781.031-.344 1.062c-.165-.02-.33-.062-.5-.062s-.336.042-.5.062L7.742 3.53l-.781-.032zm1.625 3.438l.937.313.594.78v1l-.594.782-.937.312-.938-.312-.593-.781v-1l.593-.781.938-.313z" color="#000"/></svg>