<?xml version="1.0" standalone="no"?>
<!DOCTYPE svg PUBLIC "-//W3C//DTD SVG 20010904//EN"
 "http://www.w3.org/TR/2001/REC-SVG-20010904/DTD/svg10.dtd">
<svg version="1.0" xmlns="http://www.w3.org/2000/svg"
 width="16.000000pt" height="16.000000pt" viewBox="0 0 16.000000 16.000000"
 preserveAspectRatio="xMidYMid meet">
<metadata>
Created by potrace 1.11, written by Peter Selinger 2001-2013
</metadata>
<g transform="translate(0.000000,16.000000) scale(0.002286,-0.002286)"
fill="#000000" stroke="none">
<path d="M4839 6436 c-2 -2 -24 -6 -49 -10 -119 -15 -224 -58 -454 -185 -78
-43 -172 -95 -211 -116 -81 -44 -165 -99 -250 -164 -53 -41 -2693 -2673 -2790
-2782 -64 -72 -77 -89 -136 -179 -118 -177 -213 -405 -239 -570 -12 -81 -10
-1394 3 -1439 26 -93 99 -183 185 -229 119 -64 73 -62 1327 -61 l1140 0 170
68 170 69 3 1051 2 1051 -489 0 -489 0 560 560 560 560 834 0 c459 0 834 -2
834 -5 0 -2 -297 -301 -660 -664 l-660 -660 0 -1016 0 -1016 913 3 c837 4 918
5 987 22 96 23 92 22 110 28 8 3 38 14 65 23 48 17 143 66 173 89 43 33 114
111 137 151 15 24 35 73 46 107 18 61 19 136 19 2503 0 2672 4 2487 -57 2612
-42 85 -142 165 -238 190 -29 7 -1508 16 -1516 9z m1112 -440 c14 -11 34 -31
45 -45 19 -26 19 -67 22 -2426 1 -1320 0 -2414 -3 -2431 -6 -33 -57 -91 -92
-105 -12 -4 -344 -10 -737 -13 l-715 -6 4 753 c2 413 4 809 5 879 l0 127 641
640 c461 462 645 653 659 682 21 48 19 112 -5 163 -21 44 -82 101 -124 115
-24 8 -307 11 -999 11 l-966 0 -44 -22 c-33 -16 -243 -219 -777 -753 -649
-649 -733 -737 -742 -773 -26 -103 20 -203 117 -252 19 -10 38 -18 43 -19 4
-1 185 -1 402 -1 l395 0 0 -770 0 -770 -985 0 c-967 0 -986 0 -1028 20 -23 11
-52 35 -64 52 l-23 33 3 670 c1 368 6 682 10 696 56 208 118 346 256 574 l66
110 1290 1290 c1344 1343 1329 1329 1509 1429 73 40 202 92 292 117 159 44
215 47 884 45 612 -1 636 -2 661 -20z"/>
</g>
</svg>
