<svg xmlns="http://www.w3.org/2000/svg" xmlns:xlink="http://www.w3.org/1999/xlink" width="106.667" height="106.667" viewBox="0 0 99.999997 99.999997"><defs><linearGradient id="c"><stop offset="0" stop-color="#176093"/><stop offset=".818" stop-color="#176093"/><stop offset="1" stop-color="#0f3d5b"/></linearGradient><linearGradient id="a"><stop offset="0" stop-color="#176093"/><stop offset="1" stop-color="#0f3d5b"/></linearGradient><linearGradient id="b"><stop offset="0" stop-color="#176093"/><stop offset=".667" stop-color="#176093"/><stop offset="1" stop-color="#0f3d5b"/></linearGradient><linearGradient xlink:href="#a" id="l" gradientUnits="userSpaceOnUse" x1="421.933" y1="501.987" x2="423.933" y2="501.987" gradientTransform="translate(-328.933 -486.987)"/><linearGradient xlink:href="#a" id="k" gradientUnits="userSpaceOnUse" gradientTransform="translate(-329.433 -486.987)" x1="412.933" y1="496.987" x2="412.933" y2="494.987"/><linearGradient xlink:href="#a" id="j" gradientUnits="userSpaceOnUse" x1="362.933" y1="546.987" x2="363.933" y2="547.987" gradientTransform="translate(-328.933 -486.987)"/><linearGradient xlink:href="#a" id="i" gradientUnits="userSpaceOnUse" x1="376.933" y1="546.987" x2="376.933" y2="544.987" gradientTransform="translate(-328.933 -486.987)"/><linearGradient xlink:href="#a" id="h" gradientUnits="userSpaceOnUse" x1="376.933" y1="560.987" x2="381.933" y2="560.987" gradientTransform="translate(-328.933 -486.987)"/><linearGradient xlink:href="#a" id="g" gradientUnits="userSpaceOnUse" x1="421.933" y1="501.987" x2="423.933" y2="501.987" gradientTransform="translate(-328.933 -486.987)"/><radialGradient xlink:href="#b" id="f" gradientUnits="userSpaceOnUse" gradientTransform="matrix(1.09091 0 0 1.09091 -364.805 -535.252)" cx="415.988" cy="503.479" fx="415.988" fy="503.479" r="5.5"/><linearGradient xlink:href="#a" id="e" gradientUnits="userSpaceOnUse" x1="84" y1="10" x2="84" y2="8"/><radialGradient xlink:href="#c" id="d" gradientUnits="userSpaceOnUse" gradientTransform="matrix(2 0 0 1.63637 -740.665 -847.37)" cx="412.332" cy="567.946" fx="412.332" fy="567.946" r="5.5"/></defs><image xlink:href="Desktop\aersiaLogo.png" x="100" preserveAspectRatio="none" height="100" width="100" image-rendering="optimizeSpeed"/><g fill-rule="evenodd"><path d="M84 90c6 0 6-6 6-6l5-2c0 8-11 8-11 8z" fill="url(#d)"/><path d="M68 10c-8 0-14 6-14 6L16 54s-5 5-6 12v18c0 6 6 6 6 6h32V60H34l18-18h27L60 61v29h24c6 0 6-6 6-6V16s0-6-6-6H68zm0 4h16c1 0 2 1 2 2v68c0 1-1 2-2 2l-20.125.125L64 61l18-18c2-2 0-5-2-5H53s-1 0-2 1L31 59c-2 2 0 5 2 5h11v22H16s-1.983-.327-2-2V66c.833-5.399 5-11 5-11l36-36s5-5 13-5z" fill="#176093"/><path d="M59.028 12.438C67 8 67 8 73 8h16l-5 2H68c-5 0-8.972 2.438-8.972 2.438z" fill="url(#e)"/><path d="M89 8c6 0 6 6 6 6l-5 2s0-6-6-6z" fill="url(#f)"/><path d="M90 16l5-2v68l-5 2z" fill="url(#g)"/><path d="M48 90l5-2V58l-5 2z" fill="url(#h)"/><path d="M34 60h14l5-2H39z" fill="url(#i)"/><path d="M34 60l18-18h3L39 58z" fill="url(#j)"/><path d="M83.5 10l5-2v3z" fill="url(#k)"/><path d="M89 14h6l-6 3z" fill="url(#l)"/><path d="M84 90c6 0 6-6 6-6l5-2c0 8-11 8-11 8z" fill-opacity=".179"/><path d="M90 16l5-2v68l-5 2zM48 90l5-2V58l-5 2zM34 60l18-18h3L39 58z" fill-opacity=".179"/><path d="M34 60h14l5-2H39zM59.028 12.438C67 8 67 8 73 8h16l-5 2H68c-5 0-8.972 2.438-8.972 2.438z" fill-opacity=".179"/><path d="M89 8c6 0 6 6 6 6l-5 2s0-6-6-6z" fill-opacity=".179"/></g></svg>