<svg xmlns="http://www.w3.org/2000/svg" xmlns:xlink="http://www.w3.org/1999/xlink" width="106.667" height="106.667" viewBox="0 0 99.999997 99.999997"><defs><linearGradient id="c"><stop offset="0" stop-color="#176093"/><stop offset=".818" stop-color="#176093"/><stop offset="1" stop-color="#0f3d5b"/></linearGradient><linearGradient id="a"><stop offset="0" stop-color="#176093"/><stop offset="1" stop-color="#0f3d5b"/></linearGradient><linearGradient id="b"><stop offset="0" stop-color="#176093"/><stop offset=".667" stop-color="#176093"/><stop offset="1" stop-color="#0f3d5b"/></linearGradient><linearGradient xlink:href="#a" id="g" x1="84" y1="10" x2="84" y2="8" gradientUnits="userSpaceOnUse"/><radialGradient xlink:href="#b" id="h" cx="415.988" cy="503.479" fx="415.988" fy="503.479" r="5.5" gradientTransform="matrix(1.09091 0 0 1.09091 -35.873 -48.264)" gradientUnits="userSpaceOnUse"/><linearGradient xlink:href="#a" id="i" x1="421.933" y1="501.987" x2="423.933" y2="501.987" gradientUnits="userSpaceOnUse"/><linearGradient xlink:href="#a" id="m" x1="412.933" y1="496.987" x2="412.933" y2="494.987" gradientUnits="userSpaceOnUse" gradientTransform="translate(-.5)"/><linearGradient xlink:href="#a" id="n" x1="421.933" y1="501.987" x2="423.933" y2="501.987" gradientUnits="userSpaceOnUse"/><radialGradient xlink:href="#c" id="d" cx="412.332" cy="567.946" fx="412.332" fy="567.946" r="5.5" gradientTransform="matrix(2 0 0 1.63637 -411.733 -360.382)" gradientUnits="userSpaceOnUse"/><linearGradient xlink:href="#a" id="j" x1="376.933" y1="560.987" x2="381.933" y2="560.987" gradientUnits="userSpaceOnUse"/><linearGradient xlink:href="#a" id="k" x1="376.933" y1="546.987" x2="376.933" y2="544.987" gradientUnits="userSpaceOnUse"/><linearGradient xlink:href="#a" id="l" x1="362.933" y1="546.987" x2="363.933" y2="547.987" gradientUnits="userSpaceOnUse"/><filter id="f" x="-.012" width="1.024" y="-.012" height="1.024" color-interpolation-filters="sRGB"><feGaussianBlur stdDeviation=".331"/></filter><filter id="e" x="-.024" width="1.048" y="-.024" height="1.048" color-interpolation-filters="sRGB"><feGaussianBlur stdDeviation=".721"/></filter></defs><image xlink:href="Desktop\aersiaLogo.png" width="100" height="100" preserveAspectRatio="none" x="100" image-rendering="optimizeSpeed"/><g fill-rule="evenodd"><path d="M73 8c-8 0-14 6-14 6L21 52s-5 5-6 12v18c0 6 6 6 6 6h32V58H39l18-18h27L65 59v29h24c6 0 6-6 6-6V14s0-6-6-6z" fill="#176093"/><path d="M73 12c-8 0-13 5-13 5L24 53s-4.167 5.601-5 11v18c.017 1.673 2 2 2 2h28V62H38c-2 0-4-3-2-5l20-20c1-1 2-1 2-1h27c2 0 4 3 2 5L69 59l-.13 25.128L89 84c1 0 2-1 2-2V14c0-1-1-2-2-2z" fill="#d7edfc"/><path d="M73 14.915c-6.786 0-10.938 4.147-10.938 4.147L27 54c-2 2-4.395 6.173-5.085 10.331v16.752h24.168V64.915L38 65c-5 .085-7-6-5-8 0 0 14.298-14.293 22-22 0 0 2-2 4-2h26c2 0 3 1 3 3l.083-21.085zM88 43L72 59l-.198 22.192 16.281-.103z" fill="#65a5d1"/><path d="M412.933 576.987c6 0 6-6 6-6l5-2c0 8-11 8-11 8z" fill="url(#d)" transform="translate(-328.933 -486.987)"/><path d="M68 10c-8 0-14 6-14 6L16 54s-5 5-6 12v18c0 6 6 6 6 6h32V60H34l18-18h27L60 61v29h24c6 0 6-6 6-6V16s0-6-6-6z" fill="#176093"/><path d="M396.932 500.227c-8.317 0-13.537 5.222-13.537 5.222l-36 36a.76.76 0 0 0-.073.084s-4.264 5.64-5.142 11.338a.76.76 0 0 0-.008.115v18a.76.76 0 0 0 0 .008c.011 1.137.748 1.905 1.382 2.276.635.37 1.254.467 1.254.467a.76.76 0 0 0 .123.01h28a.76.76 0 0 0 .76-.76v-22a.76.76 0 0 0-.76-.76h-11c-.62 0-1.433-.557-1.82-1.33s-.418-1.597.358-2.373l20-20c.41-.41.799-.599 1.078-.692.278-.092.384-.085.384-.085h27c.62 0 1.434.556 1.82 1.33.387.773.42 1.597-.357 2.373l-18 18a.76.76 0 0 0-.222.533l-.13 25.129a.76.76 0 0 0 .764.763l20.125-.128c.754 0 1.418-.354 1.913-.848.494-.495.847-1.159.847-1.912v-68c0-.754-.353-1.418-.847-1.912-.495-.495-1.16-.848-1.913-.848h-16z" fill-opacity=".095" filter="url(#e)" transform="translate(-328.933 -486.987)"/><path d="M68 14c-8 0-13 5-13 5L19 55s-4.168 5.602-5 11v18c.016 1.673 2 2 2 2h28V64H33c-2 0-4-3-2-5l20-20c1-1 2-1 2-1h27c2 0 4 3 2 5L64 61l-.13 25.128L84 86c1 0 2-1 2-2V16c0-1-1-2-2-2z" fill="#d7edfc"/><path d="M397.031 504.002c-6.784 0-10.937 4.146-10.937 4.146l-35.062 34.939c-2 2-4.394 6.173-5.085 10.33v16.753h24.168v-16.168l-8.083.085c-4.999.085-7-6-5-8 0 0 14.298-14.294 22-22 0 0 2-2 4-2h26c2 0 3 1 3 3l.083-21.085zm15.001 28.085l-16 16-.198 22.192 16.281-.103z" fill-opacity=".887" filter="url(#f)" transform="translate(-328.933 -486.987)"/><path d="M67.999 16.915c-6.785 0-10.938 4.147-10.938 4.147L22 56c-2 2-4.395 6.173-5.085 10.331v16.752h24.168V66.915L33 67c-5 .085-7-6-5-8 0 0 14.297-14.293 22-22 0 0 2-2 4-2h26c2 0 3 1 3 3l.083-21.085zm15 28.085L67 61l-.198 22.193 16.282-.104z" fill="#65a5d1"/><path d="M59.028 12.438C67 8 67 8 73 8h16l-5 2H68c-5 0-8.972 2.438-8.972 2.438z" fill="url(#g)"/><path d="M417.933 494.987c6 0 6 6 6 6l-5 2s0-6-6-6z" fill="url(#h)" transform="translate(-328.933 -486.987)"/><path d="M418.933 502.987l5-2v68l-5 2z" fill="url(#i)" transform="translate(-328.933 -486.987)"/><path d="M376.933 576.987l5-2v-30l-5 2z" fill="url(#j)" transform="translate(-328.933 -486.987)"/><path d="M362.933 546.987h14l5-2h-14z" fill="url(#k)" transform="translate(-328.933 -486.987)"/><path d="M362.933 546.987l18-18h3l-16 16z" fill="url(#l)" transform="translate(-328.933 -486.987)"/><path d="M412.433 496.987l5-2v3z" fill="url(#m)" transform="translate(-328.933 -486.987)"/><path d="M417.933 500.987h6l-6 3z" fill="url(#n)" transform="translate(-328.933 -486.987)"/></g><g fill-opacity=".179" fill-rule="evenodd"><path d="M84 90c6 0 6-6 6-6l5-2c0 8-11 8-11 8zM59.028 12.438C67 8 67 8 73 8h16l-5 2H68c-5 0-8.972 2.438-8.972 2.438z"/><path d="M89 8c6 0 6 6 6 6l-5 2s0-6-6-6z"/><path d="M90 16l5-2v68l-5 2zM48 90l5-2V58l-5 2z"/><path d="M34 60h14l5-2H39z"/><path d="M34 60l18-18h3L39 58z"/></g></svg>