<svg xmlns="http://www.w3.org/2000/svg" width="40" height="40" viewBox="0 0 40 40"><switch><g><g opacity=".7"><path fill-rule="evenodd" clip-rule="evenodd" d="M39 11v-1c0-1.47-.48-2-2-2H3c-1.53 0-2 .52-2 2v1c0 1.55.52 2 2 2h34c1.5 0 2-.48 2-2z" opacity=".75"/><path fill-rule="evenodd" clip-rule="evenodd" fill="#FFF" d="M39 10V9c0-1.47-.48-2-2-2H3c-1.53 0-2 .52-2 2v1c0 1.55.52 2 2 2h34c1.5 0 2-.48 2-2z"/></g><g opacity=".7"><path fill-rule="evenodd" clip-rule="evenodd" d="M39 22v-1c0-1.47-.48-2-2-2H3c-1.53 0-2 .52-2 2v1c0 1.55.52 2 2 2h34c1.5 0 2-.48 2-2z" opacity=".75"/><path fill-rule="evenodd" clip-rule="evenodd" fill="#FFF" d="M39 21v-1c0-1.47-.48-2-2-2H3c-1.53 0-2 .52-2 2v1c0 1.55.52 2 2 2h34c1.5 0 2-.48 2-2z"/></g><g opacity=".7"><path fill-rule="evenodd" clip-rule="evenodd" d="M39 33v-1c0-1.471-.48-2-2-2H3c-1.53 0-2 .52-2 2v1c0 1.55.52 2 2 2h34c1.5 0 2-.48 2-2z" opacity=".75"/><path fill-rule="evenodd" clip-rule="evenodd" fill="#FFF" d="M39 32v-1c0-1.471-.48-2-2-2H3c-1.53 0-2 .52-2 2v1c0 1.55.52 2 2 2h34c1.5 0 2-.48 2-2z"/></g></g></switch></svg>