<svg viewBox="0 0 15 15" xmlns="http://www.w3.org/2000/svg"><symbol viewBox="0 0 15 15" id="icon-fullscreen"><title>fullscreen</title> <g transform="translate(377 -500.4)" display="none"> <path d="m-372 504.4 5 3.5-5 3.5z" fill-rule="evenodd" fill="#ff9148"/> </g> <g display="none" fill="#ff9148"> <rect style="color-rendering:auto;color:#000000;isolation:auto;mix-blend-mode:normal;shape-rendering:auto;solid-color:#000000;image-rendering:auto" height="7" width="2" display="inline" y="4" x="5"/> <rect style="color-rendering:auto;color:#000000;isolation:auto;mix-blend-mode:normal;shape-rendering:auto;solid-color:#000000;image-rendering:auto" height="7" width="2" display="inline" y="4" x="8"/> </g> <g display="none" fill="#ff9148"> <path d="m10 4-5 3.5 5 3.5z" fill-rule="evenodd"/> <rect style="color-rendering:auto;color:#000000;isolation:auto;mix-blend-mode:normal;shape-rendering:auto;solid-color:#000000;image-rendering:auto" height="7" width="2" display="inline" y="4" x="5"/> </g> <g display="none" fill="#ff9148"> <path d="m5 4 5 3.5-5 3.5z" fill-rule="evenodd"/> <rect style="color-rendering:auto;color:#000000;isolation:auto;mix-blend-mode:normal;shape-rendering:auto;solid-color:#000000;image-rendering:auto" height="7" width="2" display="inline" y="4" x="8"/> </g> <g fill="#ff9148"> <rect style="color-rendering:auto;color:#000000;isolation:auto;mix-blend-mode:normal;shape-rendering:auto;solid-color:#000000;image-rendering:auto" height="5" width="5" y="5" x="5"/> <path style="color-rendering:auto;color:#000000;isolation:auto;mix-blend-mode:normal;shape-rendering:auto;solid-color:#000000;image-rendering:auto" d="m5 3h-2v2h1v-1h1z"/> <path style="color-rendering:auto;color:#000000;isolation:auto;mix-blend-mode:normal;shape-rendering:auto;solid-color:#000000;image-rendering:auto" d="m12 5v-2h-2v1h1v1z"/> <path style="color-rendering:auto;color:#000000;isolation:auto;mix-blend-mode:normal;shape-rendering:auto;solid-color:#000000;image-rendering:auto" d="m10 12h2v-2h-1v1h-1z"/> <path style="color-rendering:auto;color:#000000;isolation:auto;mix-blend-mode:normal;shape-rendering:auto;solid-color:#000000;image-rendering:auto" d="m3 10v2h2v-1h-1v-1z"/> </g> <g display="none" fill="#ff9148"> <rect style="color-rendering:auto;color:#000000;isolation:auto;mix-blend-mode:normal;shape-rendering:auto;solid-color:#000000;image-rendering:auto" height="3" width="2" display="inline" y="6" x="5"/> <path style="color-rendering:auto;color:#000000;isolation:auto;mix-blend-mode:normal;shape-rendering:auto;solid-color:#000000;image-rendering:auto" d="m8 6 2-2v7l-2-2z" display="inline"/> </g> </symbol><symbol viewBox="0 0 15 15" id="icon-next"><title>next</title> <g transform="translate(377 -500.4)" display="none"> <path d="m-372 504.4 5 3.5-5 3.5z" fill-rule="evenodd" fill="#ff9148"/> </g> <g display="none" fill="#ff9148"> <rect style="color-rendering:auto;color:#000000;isolation:auto;mix-blend-mode:normal;shape-rendering:auto;solid-color:#000000;image-rendering:auto" height="7" width="2" display="inline" y="4" x="5"/> <rect style="color-rendering:auto;color:#000000;isolation:auto;mix-blend-mode:normal;shape-rendering:auto;solid-color:#000000;image-rendering:auto" height="7" width="2" display="inline" y="4" x="8"/> </g> <g display="none" fill="#ff9148"> <path d="m10 4-5 3.5 5 3.5z" fill-rule="evenodd"/> <rect style="color-rendering:auto;color:#000000;isolation:auto;mix-blend-mode:normal;shape-rendering:auto;solid-color:#000000;image-rendering:auto" height="7" width="2" display="inline" y="4" x="5"/> </g> <g fill="#ff9148"> <path d="m5 4 5 3.5-5 3.5z" fill-rule="evenodd"/> <rect style="color-rendering:auto;color:#000000;isolation:auto;mix-blend-mode:normal;shape-rendering:auto;solid-color:#000000;image-rendering:auto" height="7" width="2" y="4" x="8"/> </g> <g display="none" fill="#ff9148"> <rect style="color-rendering:auto;color:#000000;isolation:auto;mix-blend-mode:normal;shape-rendering:auto;solid-color:#000000;image-rendering:auto" height="5" width="5" display="inline" y="5" x="5"/> <path style="color-rendering:auto;color:#000000;isolation:auto;mix-blend-mode:normal;shape-rendering:auto;solid-color:#000000;image-rendering:auto" d="m5 3h-2v2h1v-1h1z" display="inline"/> <path style="color-rendering:auto;color:#000000;isolation:auto;mix-blend-mode:normal;shape-rendering:auto;solid-color:#000000;image-rendering:auto" d="m12 5v-2h-2v1h1v1z" display="inline"/> <path style="color-rendering:auto;color:#000000;isolation:auto;mix-blend-mode:normal;shape-rendering:auto;solid-color:#000000;image-rendering:auto" d="m10 12h2v-2h-1v1h-1z" display="inline"/> <path style="color-rendering:auto;color:#000000;isolation:auto;mix-blend-mode:normal;shape-rendering:auto;solid-color:#000000;image-rendering:auto" d="m3 10v2h2v-1h-1v-1z" display="inline"/> </g> <g display="none" fill="#ff9148"> <rect style="color-rendering:auto;color:#000000;isolation:auto;mix-blend-mode:normal;shape-rendering:auto;solid-color:#000000;image-rendering:auto" height="3" width="2" display="inline" y="6" x="5"/> <path style="color-rendering:auto;color:#000000;isolation:auto;mix-blend-mode:normal;shape-rendering:auto;solid-color:#000000;image-rendering:auto" d="m8 6 2-2v7l-2-2z" display="inline"/> </g> </symbol><symbol viewBox="0 0 15 15" id="icon-pause"><title>pause</title> <g transform="translate(377 -500.4)" display="none"> <path d="m-372 504.4 5 3.5-5 3.5z" fill-rule="evenodd" fill="#ff9148"/> </g> <g fill="#ff9148"> <rect style="color-rendering:auto;color:#000000;isolation:auto;mix-blend-mode:normal;shape-rendering:auto;solid-color:#000000;image-rendering:auto" height="7" width="2" y="4" x="5"/> <rect style="color-rendering:auto;color:#000000;isolation:auto;mix-blend-mode:normal;shape-rendering:auto;solid-color:#000000;image-rendering:auto" height="7" width="2" y="4" x="8"/> </g> <g display="none" fill="#ff9148"> <path d="m10 4-5 3.5 5 3.5z" fill-rule="evenodd"/> <rect style="color-rendering:auto;color:#000000;isolation:auto;mix-blend-mode:normal;shape-rendering:auto;solid-color:#000000;image-rendering:auto" height="7" width="2" display="inline" y="4" x="5"/> </g> <g display="none" fill="#ff9148"> <path d="m5 4 5 3.5-5 3.5z" fill-rule="evenodd"/> <rect style="color-rendering:auto;color:#000000;isolation:auto;mix-blend-mode:normal;shape-rendering:auto;solid-color:#000000;image-rendering:auto" height="7" width="2" display="inline" y="4" x="8"/> </g> <g display="none" fill="#ff9148"> <rect style="color-rendering:auto;color:#000000;isolation:auto;mix-blend-mode:normal;shape-rendering:auto;solid-color:#000000;image-rendering:auto" height="5" width="5" display="inline" y="5" x="5"/> <path style="color-rendering:auto;color:#000000;isolation:auto;mix-blend-mode:normal;shape-rendering:auto;solid-color:#000000;image-rendering:auto" d="m5 3h-2v2h1v-1h1z" display="inline"/> <path style="color-rendering:auto;color:#000000;isolation:auto;mix-blend-mode:normal;shape-rendering:auto;solid-color:#000000;image-rendering:auto" d="m12 5v-2h-2v1h1v1z" display="inline"/> <path style="color-rendering:auto;color:#000000;isolation:auto;mix-blend-mode:normal;shape-rendering:auto;solid-color:#000000;image-rendering:auto" d="m10 12h2v-2h-1v1h-1z" display="inline"/> <path style="color-rendering:auto;color:#000000;isolation:auto;mix-blend-mode:normal;shape-rendering:auto;solid-color:#000000;image-rendering:auto" d="m3 10v2h2v-1h-1v-1z" display="inline"/> </g> <g display="none" fill="#ff9148"> <rect style="color-rendering:auto;color:#000000;isolation:auto;mix-blend-mode:normal;shape-rendering:auto;solid-color:#000000;image-rendering:auto" height="3" width="2" display="inline" y="6" x="5"/> <path style="color-rendering:auto;color:#000000;isolation:auto;mix-blend-mode:normal;shape-rendering:auto;solid-color:#000000;image-rendering:auto" d="m8 6 2-2v7l-2-2z" display="inline"/> </g> </symbol><symbol viewBox="0 0 15 15" id="icon-play"><title>play</title> <g transform="translate(377 -500.4)"> <path d="m-372 504.4 5 3.5-5 3.5z" fill-rule="evenodd" fill="#ff9148"/> </g> <g display="none" fill="#ff9148"> <rect style="color-rendering:auto;color:#000000;isolation:auto;mix-blend-mode:normal;shape-rendering:auto;solid-color:#000000;image-rendering:auto" height="7" width="2" display="inline" y="4" x="5"/> <rect style="color-rendering:auto;color:#000000;isolation:auto;mix-blend-mode:normal;shape-rendering:auto;solid-color:#000000;image-rendering:auto" height="7" width="2" display="inline" y="4" x="8"/> </g> <g display="none" fill="#ff9148"> <path d="m10 4-5 3.5 5 3.5z" fill-rule="evenodd"/> <rect style="color-rendering:auto;color:#000000;isolation:auto;mix-blend-mode:normal;shape-rendering:auto;solid-color:#000000;image-rendering:auto" height="7" width="2" display="inline" y="4" x="5"/> </g> <g display="none" fill="#ff9148"> <path d="m5 4 5 3.5-5 3.5z" fill-rule="evenodd"/> <rect style="color-rendering:auto;color:#000000;isolation:auto;mix-blend-mode:normal;shape-rendering:auto;solid-color:#000000;image-rendering:auto" height="7" width="2" display="inline" y="4" x="8"/> </g> <g display="none" fill="#ff9148"> <rect style="color-rendering:auto;color:#000000;isolation:auto;mix-blend-mode:normal;shape-rendering:auto;solid-color:#000000;image-rendering:auto" height="5" width="5" display="inline" y="5" x="5"/> <path style="color-rendering:auto;color:#000000;isolation:auto;mix-blend-mode:normal;shape-rendering:auto;solid-color:#000000;image-rendering:auto" d="m5 3h-2v2h1v-1h1z" display="inline"/> <path style="color-rendering:auto;color:#000000;isolation:auto;mix-blend-mode:normal;shape-rendering:auto;solid-color:#000000;image-rendering:auto" d="m12 5v-2h-2v1h1v1z" display="inline"/> <path style="color-rendering:auto;color:#000000;isolation:auto;mix-blend-mode:normal;shape-rendering:auto;solid-color:#000000;image-rendering:auto" d="m10 12h2v-2h-1v1h-1z" display="inline"/> <path style="color-rendering:auto;color:#000000;isolation:auto;mix-blend-mode:normal;shape-rendering:auto;solid-color:#000000;image-rendering:auto" d="m3 10v2h2v-1h-1v-1z" display="inline"/> </g> <g display="none" fill="#ff9148"> <rect style="color-rendering:auto;color:#000000;isolation:auto;mix-blend-mode:normal;shape-rendering:auto;solid-color:#000000;image-rendering:auto" height="3" width="2" display="inline" y="6" x="5"/> <path style="color-rendering:auto;color:#000000;isolation:auto;mix-blend-mode:normal;shape-rendering:auto;solid-color:#000000;image-rendering:auto" d="m8 6 2-2v7l-2-2z" display="inline"/> </g> </symbol><symbol viewBox="0 0 15 15" id="icon-prev"><title>prev</title> <g transform="translate(377 -500.4)" display="none"> <path d="m-372 504.4 5 3.5-5 3.5z" fill-rule="evenodd" fill="#ff9148"/> </g> <g display="none" fill="#ff9148"> <rect style="color-rendering:auto;color:#000000;isolation:auto;mix-blend-mode:normal;shape-rendering:auto;solid-color:#000000;image-rendering:auto" height="7" width="2" display="inline" y="4" x="5"/> <rect style="color-rendering:auto;color:#000000;isolation:auto;mix-blend-mode:normal;shape-rendering:auto;solid-color:#000000;image-rendering:auto" height="7" width="2" display="inline" y="4" x="8"/> </g> <g fill="#ff9148"> <path d="m10 4-5 3.5 5 3.5z" fill-rule="evenodd"/> <rect style="color-rendering:auto;color:#000000;isolation:auto;mix-blend-mode:normal;shape-rendering:auto;solid-color:#000000;image-rendering:auto" height="7" width="2" y="4" x="5"/> </g> <g display="none" fill="#ff9148"> <path d="m5 4 5 3.5-5 3.5z" fill-rule="evenodd"/> <rect style="color-rendering:auto;color:#000000;isolation:auto;mix-blend-mode:normal;shape-rendering:auto;solid-color:#000000;image-rendering:auto" height="7" width="2" display="inline" y="4" x="8"/> </g> <g display="none" fill="#ff9148"> <rect style="color-rendering:auto;color:#000000;isolation:auto;mix-blend-mode:normal;shape-rendering:auto;solid-color:#000000;image-rendering:auto" height="5" width="5" display="inline" y="5" x="5"/> <path style="color-rendering:auto;color:#000000;isolation:auto;mix-blend-mode:normal;shape-rendering:auto;solid-color:#000000;image-rendering:auto" d="m5 3h-2v2h1v-1h1z" display="inline"/> <path style="color-rendering:auto;color:#000000;isolation:auto;mix-blend-mode:normal;shape-rendering:auto;solid-color:#000000;image-rendering:auto" d="m12 5v-2h-2v1h1v1z" display="inline"/> <path style="color-rendering:auto;color:#000000;isolation:auto;mix-blend-mode:normal;shape-rendering:auto;solid-color:#000000;image-rendering:auto" d="m10 12h2v-2h-1v1h-1z" display="inline"/> <path style="color-rendering:auto;color:#000000;isolation:auto;mix-blend-mode:normal;shape-rendering:auto;solid-color:#000000;image-rendering:auto" d="m3 10v2h2v-1h-1v-1z" display="inline"/> </g> <g display="none" fill="#ff9148"> <rect style="color-rendering:auto;color:#000000;isolation:auto;mix-blend-mode:normal;shape-rendering:auto;solid-color:#000000;image-rendering:auto" height="3" width="2" display="inline" y="6" x="5"/> <path style="color-rendering:auto;color:#000000;isolation:auto;mix-blend-mode:normal;shape-rendering:auto;solid-color:#000000;image-rendering:auto" d="m8 6 2-2v7l-2-2z" display="inline"/> </g> </symbol><symbol viewBox="0 0 15 15" id="icon-vol"><title>vol</title> <g transform="translate(377 -500.4)" display="none"> <path d="m-372 504.4 5 3.5-5 3.5z" fill-rule="evenodd" fill="#ff9148"/> </g> <g display="none" fill="#ff9148"> <rect style="color-rendering:auto;color:#000000;isolation:auto;mix-blend-mode:normal;shape-rendering:auto;solid-color:#000000;image-rendering:auto" height="7" width="2" display="inline" y="4" x="5"/> <rect style="color-rendering:auto;color:#000000;isolation:auto;mix-blend-mode:normal;shape-rendering:auto;solid-color:#000000;image-rendering:auto" height="7" width="2" display="inline" y="4" x="8"/> </g> <g display="none" fill="#ff9148"> <path d="m10 4-5 3.5 5 3.5z" fill-rule="evenodd"/> <rect style="color-rendering:auto;color:#000000;isolation:auto;mix-blend-mode:normal;shape-rendering:auto;solid-color:#000000;image-rendering:auto" height="7" width="2" display="inline" y="4" x="5"/> </g> <g display="none" fill="#ff9148"> <path d="m5 4 5 3.5-5 3.5z" fill-rule="evenodd"/> <rect style="color-rendering:auto;color:#000000;isolation:auto;mix-blend-mode:normal;shape-rendering:auto;solid-color:#000000;image-rendering:auto" height="7" width="2" display="inline" y="4" x="8"/> </g> <g display="none" fill="#ff9148"> <rect style="color-rendering:auto;color:#000000;isolation:auto;mix-blend-mode:normal;shape-rendering:auto;solid-color:#000000;image-rendering:auto" height="5" width="5" display="inline" y="5" x="5"/> <path style="color-rendering:auto;color:#000000;isolation:auto;mix-blend-mode:normal;shape-rendering:auto;solid-color:#000000;image-rendering:auto" d="m5 3h-2v2h1v-1h1z" display="inline"/> <path style="color-rendering:auto;color:#000000;isolation:auto;mix-blend-mode:normal;shape-rendering:auto;solid-color:#000000;image-rendering:auto" d="m12 5v-2h-2v1h1v1z" display="inline"/> <path style="color-rendering:auto;color:#000000;isolation:auto;mix-blend-mode:normal;shape-rendering:auto;solid-color:#000000;image-rendering:auto" d="m10 12h2v-2h-1v1h-1z" display="inline"/> <path style="color-rendering:auto;color:#000000;isolation:auto;mix-blend-mode:normal;shape-rendering:auto;solid-color:#000000;image-rendering:auto" d="m3 10v2h2v-1h-1v-1z" display="inline"/> </g> <g fill="#ff9148"> <rect style="color-rendering:auto;color:#000000;isolation:auto;mix-blend-mode:normal;shape-rendering:auto;solid-color:#000000;image-rendering:auto" height="3" width="2" y="6" x="5"/> <path style="color-rendering:auto;color:#000000;isolation:auto;mix-blend-mode:normal;shape-rendering:auto;solid-color:#000000;image-rendering:auto" d="m8 6 2-2v7l-2-2z"/> </g> </symbol><symbol viewBox="0 0 15 15" id="icon-volMute"><title>volMute</title> <g transform="translate(377 -500.4)" display="none"> <path d="m-372 504.4 5 3.5-5 3.5z" fill-rule="evenodd" fill="#ff9148"/> </g> <g display="none" fill="#ff9148"> <rect style="color-rendering:auto;color:#000000;isolation:auto;mix-blend-mode:normal;shape-rendering:auto;solid-color:#000000;image-rendering:auto" height="7" width="2" display="inline" y="4" x="5"/> <rect style="color-rendering:auto;color:#000000;isolation:auto;mix-blend-mode:normal;shape-rendering:auto;solid-color:#000000;image-rendering:auto" height="7" width="2" display="inline" y="4" x="8"/> </g> <g display="none" fill="#ff9148"> <path d="m10 4-5 3.5 5 3.5z" fill-rule="evenodd"/> <rect style="color-rendering:auto;color:#000000;isolation:auto;mix-blend-mode:normal;shape-rendering:auto;solid-color:#000000;image-rendering:auto" height="7" width="2" display="inline" y="4" x="5"/> </g> <g display="none" fill="#ff9148"> <path d="m5 4 5 3.5-5 3.5z" fill-rule="evenodd"/> <rect style="color-rendering:auto;color:#000000;isolation:auto;mix-blend-mode:normal;shape-rendering:auto;solid-color:#000000;image-rendering:auto" height="7" width="2" display="inline" y="4" x="8"/> </g> <g display="none" fill="#ff9148"> <rect style="color-rendering:auto;color:#000000;isolation:auto;mix-blend-mode:normal;shape-rendering:auto;solid-color:#000000;image-rendering:auto" height="5" width="5" display="inline" y="5" x="5"/> <path style="color-rendering:auto;color:#000000;isolation:auto;mix-blend-mode:normal;shape-rendering:auto;solid-color:#000000;image-rendering:auto" d="m5 3h-2v2h1v-1h1z" display="inline"/> <path style="color-rendering:auto;color:#000000;isolation:auto;mix-blend-mode:normal;shape-rendering:auto;solid-color:#000000;image-rendering:auto" d="m12 5v-2h-2v1h1v1z" display="inline"/> <path style="color-rendering:auto;color:#000000;isolation:auto;mix-blend-mode:normal;shape-rendering:auto;solid-color:#000000;image-rendering:auto" d="m10 12h2v-2h-1v1h-1z" display="inline"/> <path style="color-rendering:auto;color:#000000;isolation:auto;mix-blend-mode:normal;shape-rendering:auto;solid-color:#000000;image-rendering:auto" d="m3 10v2h2v-1h-1v-1z" display="inline"/> </g> <g display="none" fill="#ff9148"> <rect style="color-rendering:auto;color:#000000;isolation:auto;mix-blend-mode:normal;shape-rendering:auto;solid-color:#000000;image-rendering:auto" height="3" width="2" display="inline" y="6" x="5"/> <path style="color-rendering:auto;color:#000000;isolation:auto;mix-blend-mode:normal;shape-rendering:auto;solid-color:#000000;image-rendering:auto" d="m8 6 2-2v7l-2-2z" display="inline"/> </g> <g fill="#ff9148"> <rect style="color-rendering:auto;color:#000000;isolation:auto;mix-blend-mode:normal;shape-rendering:auto;solid-color:#000000;image-rendering:auto" height="3" width="2" y="6" x="5"/> <rect style="color-rendering:auto;color:#000000;isolation:auto;mix-blend-mode:normal;shape-rendering:auto;solid-color:#000000;image-rendering:auto" height="5" width="2" y="5" x="8"/> </g> </symbol></svg>