<svg baseProfile="tiny" xmlns="http://www.w3.org/2000/svg" width="42" height="42" viewBox="0 0 42 42"><path d="M1.504 17.338c0 8.747 7.131 15.827 15.94 15.827 8.796 0 15.938-7.08 15.938-15.827S26.24 1.5 17.444 1.5c-8.809 0-15.94 7.091-15.94 15.838zm5.051 0c0-5.979 4.868-10.817 10.89-10.817 6.01 0 10.888 4.839 10.888 10.817 0 5.979-4.878 10.818-10.888 10.818-6.022 0-10.89-4.84-10.89-10.818zm22.111 14.523l6.855 7.809c1.104 1.102 1.817 1.111 2.939 0l2.201-2.181c1.082-1.081 1.15-1.778 0-2.921l-7.896-6.775-4.099 4.068z"/></svg>