<svg width="41" height="40" viewBox="0 0 41 40" xmlns="http://www.w3.org/2000/svg"><title>Slice 1</title><path d="M.504 16.338c0 8.747 7.131 15.827 15.94 15.827 8.796 0 15.938-7.08 15.938-15.827S25.24.5 16.444.5C7.635.5.504 7.591.504 16.338zm5.051 0c0-5.979 4.868-10.817 10.89-10.817 6.01 0 10.888 4.839 10.888 10.817 0 5.979-4.878 10.818-10.888 10.818-6.022 0-10.89-4.84-10.89-10.818zm22.111 14.523l6.855 7.809c1.104 1.102 1.817 1.111 2.939 0l2.201-2.181c1.082-1.081 1.15-1.778 0-2.921l-7.896-6.775-4.099 4.068zm0 0" fill="#FFF" fill-rule="evenodd"/></svg>