<svg xmlns="http://www.w3.org/2000/svg" viewBox="0 0 120 120"><g color="#000"><path fill-opacity=".846" d="M4 40.038h2v2H4zM9 40.038l-2 1 2 1zM10 40.038v2l2-1zM13 40.038h3v2h-3zM18 40.038h82v1H18zM101 40.038h3v2h-3z"/><path fill-opacity=".846" d="M28 39.038h1v3h-1zM105 40.038h2v2h-2zM108 40.038h2v2h-2zM111 40.038h1v2h-1zM112 41.038l4-1v2z"/><path fill-opacity=".149" d="M3 43.038h114v1H3z"/><path fill-opacity=".139" d="M3 43.038h114v38H3z"/><path style="block-progression:tb;text-indent:0;text-align:start;text-transform:none" d="M1 37.038v46h118v-46H2zm2 2h114v42H3z" fill-opacity=".562"/><path fill-opacity=".846" d="M5 48.038h26v26H5zM38 66.038h72.5v2H38zM38 59.038h72.5v2H38zM38 52.038h72.5v2H38z"/></g></svg>