<svg xmlns="http://www.w3.org/2000/svg" viewBox="0 0 120 120"><g color="#000"><path fill-opacity=".846" d="M4 59.038h2v2H4zM9 59.038l-2 1 2 1zM10 59.038v2l2-1zM13 59.038h3v2h-3zM101 59.038h3v2h-3zM105 59.038h2v2h-2zM108 59.038h2v2h-2zM111 59.038h1v2h-1zM112 60.038l4-1v2z"/><path style="block-progression:tb;text-indent:0;text-align:start;text-transform:none" d="M1 56.038v7.9h118v-7.9H2zm2 2h114v3.9H3z" fill-opacity=".562"/><path fill-opacity=".846" d="M64 59.038h36v2H64zM37 59.038h26v2H37zM20 59.038h16v2H20z"/></g></svg>