<svg xmlns="http://www.w3.org/2000/svg" xmlns:xlink="http://www.w3.org/1999/xlink" viewBox="0 0 120 120"><g transform="translate(0 -932.362)"><path fill-opacity=".846" color="#000" d="M4 936.362h2v2H4zM9 936.362l-2 1 2 1zM10 936.362v2l2-1zM13 936.362h3v2h-3zM18 936.362h82v1H18zM101 936.362h3v2h-3z"/><path fill-opacity=".846" color="#000" d="M28 935.362h1v3h-1zM105 936.362h2v2h-2zM108 936.362h2v2h-2zM111 936.362h1v2h-1zM112 937.362l4-1v2z"/><path id="a" fill-opacity=".149" transform="translate(0 932.362)" color="#000" d="M3 7h114v1H3z"/><path fill-opacity=".139" color="#000" d="M3 939.4h114v110H3z"/><use xlink:href="#a" transform="translate(0 6)"/><use xlink:href="#a" transform="translate(0 12)"/><use xlink:href="#a" transform="translate(0 18)"/><use xlink:href="#a" transform="translate(0 24)"/><use xlink:href="#a" transform="translate(0 30)"/><use xlink:href="#a" transform="translate(0 36)"/><use xlink:href="#a" transform="translate(0 42)"/><use xlink:href="#a" transform="translate(0 48)"/><use xlink:href="#a" transform="translate(0 54)"/><use xlink:href="#a" transform="translate(0 60)"/><use xlink:href="#a" transform="translate(0 66)"/><use xlink:href="#a" transform="translate(0 72)"/><use xlink:href="#a" transform="translate(0 78)"/><use xlink:href="#a" transform="translate(0 84)"/><use xlink:href="#a" transform="translate(0 90)"/><use xlink:href="#a" transform="translate(0 96)"/><use xlink:href="#a" transform="translate(0 102)"/><use xlink:href="#a" transform="translate(0 108)"/><path style="block-progression:tb;text-indent:0;text-align:start;text-transform:none" fill-opacity=".562" d="M1 933.4v118h118v-118H1zm2 2h114v114H3v-114z" color="#000"/></g></svg>