<svg xmlns="http://www.w3.org/2000/svg" xmlns:xlink="http://www.w3.org/1999/xlink" viewBox="0 0 120 120"><g transform="translate(0 -932.362)"><path id="a" fill-opacity=".149" transform="translate(0 932.362)" color="#000" d="M3 7h114v1H3z"/><use xlink:href="#a" transform="translate(0 6)" height="120" width="120"/><use xlink:href="#a" transform="translate(0 12)" height="120" width="120"/><use xlink:href="#a" transform="translate(0 18)" height="120" width="120"/><use xlink:href="#a" transform="translate(0 24)" height="120" width="120"/><use xlink:href="#a" transform="translate(0 30)" height="120" width="120"/><use xlink:href="#a" transform="translate(0 36)" height="120" width="120"/><use xlink:href="#a" transform="translate(0 42)" height="120" width="120"/><use xlink:href="#a" transform="translate(0 48)" height="120" width="120"/><use xlink:href="#a" transform="translate(0 54)" height="120" width="120"/><use xlink:href="#a" transform="translate(0 60)" height="120" width="120"/><use xlink:href="#a" transform="translate(0 66)" height="120" width="120"/><use xlink:href="#a" transform="translate(0 72)" height="120" width="120"/><use xlink:href="#a" transform="translate(0 78)" height="120" width="120"/><use xlink:href="#a" transform="translate(0 84)" height="120" width="120"/><use xlink:href="#a" transform="translate(0 90)" height="120" width="120"/><use xlink:href="#a" transform="translate(0 96)" height="120" width="120"/><use xlink:href="#a" transform="translate(0 102)" height="120" width="120"/><path style="block-progression:tb;text-indent:0;text-align:start;text-transform:none" fill-opacity=".562" d="M1 933.4v118h118v-118H1zm2 2h114v114H3v-114z" color="#000"/><path fill-opacity=".139" color="#000" d="M3 935.4h114v107H3z"/></g><path fill-opacity=".846" color="#000" d="M4 111h5v5H4zM15 111l-5 2.5 5 2.5zM16 111v5l5-2.5zM22 113h3v2h-3zM26 112h59v3H26z"/><path fill-opacity=".846" color="#000" d="M29 111h1v5h-1zM87 112h3v2h-3zM92 111h5v5h-5zM98 111h5v5h-5zM104 111h2v5h-2zM106 113.5l10-2.5v5z"/></svg>